<svg width="89" height="89" viewBox="0 0 89 89" fill="none" xmlns="http://www.w3.org/2000/svg">
<g clip-path="url(#clip0_1185_3232)">
<mask id="mask0_1185_3232" style="mask-type:luminance" maskUnits="userSpaceOnUse" x="0" y="0" width="89" height="89">
<path d="M89 0H0V89H89V0Z" fill="white"/>
</mask>
<g mask="url(#mask0_1185_3232)">
<path d="M55.625 81.5833L53.0537 85.4404C54.4762 86.3886 56.3051 86.4769 57.8122 85.6703C59.3196 84.8637 60.2604 83.2929 60.2604 81.5833H55.625ZM44.5 74.1667L47.0714 70.31C45.5142 69.2717 43.4858 69.2717 41.9287 70.31L44.5 74.1667ZM33.3751 81.5833H28.7397C28.7397 83.2929 29.6806 84.8637 31.1878 85.6703C32.6951 86.4769 34.5239 86.3886 35.9463 85.4404L33.3751 81.5833ZM58.1964 77.7267L47.0714 70.31L41.9287 78.0237L53.0537 85.4404L58.1964 77.7267ZM41.9287 70.31L30.8038 77.7267L35.9463 85.4404L47.0714 78.0237L41.9287 70.31ZM46.6182 13.3508L46.7747 13.5344L53.8354 7.52652L53.6789 7.34292L46.6182 13.3508ZM56.9215 17.7373L57.1618 17.718L56.4171 8.47707L56.1768 8.49643L56.9215 17.7373ZM60.1573 20.7136L60.1377 20.9539L69.3789 21.6984L69.3981 21.4581L60.1573 20.7136ZM64.3407 31.1006L64.5243 31.2568L70.5321 24.1961L70.3486 24.0399L64.3407 31.1006ZM64.5243 35.4933L64.3407 35.6495L70.3486 42.7104L70.5321 42.5539L64.5243 35.4933ZM60.1377 45.7964L60.1573 46.0367L69.3981 45.2921L69.3789 45.0518L60.1377 45.7964ZM57.1618 49.0323L56.9215 49.0127L56.1768 58.2538L56.4171 58.2731L57.1618 49.0323ZM46.7743 53.2157L46.6182 53.3993L53.6789 59.4071L53.8354 59.2236L46.7743 53.2157ZM42.3818 53.3993L42.2257 53.2157L35.1649 59.2236L35.3211 59.4071L42.3818 53.3993ZM32.0789 49.0127L31.8386 49.0323L32.5831 58.2731L32.8234 58.2538L32.0789 49.0127ZM28.843 46.0364L28.8623 45.7961L19.6214 45.0518L19.6021 45.2921L28.843 46.0364ZM24.6594 35.6495L24.4758 35.4933L18.4679 42.5539L18.6516 42.7104L24.6594 35.6495ZM24.4758 31.2568L24.6594 31.1007L18.6516 24.0399L18.468 24.1961L24.4758 31.2568ZM28.8623 20.9539L28.843 20.7136L19.6021 21.4581L19.6214 21.6984L28.8623 20.9539ZM31.8386 17.718L32.0789 17.7373L32.8234 8.49643L32.5831 8.47707L31.8386 17.718ZM42.2257 13.5344L42.3818 13.3508L35.3212 7.34292L35.1649 7.52652L42.2257 13.5344ZM32.0789 17.7373C35.94 18.0484 39.7155 16.4846 42.2257 13.5344L35.1649 7.52652C34.5856 8.20733 33.7144 8.56822 32.8234 8.49643L32.0789 17.7373ZM28.843 20.7136C28.7054 19.0054 30.1304 17.5804 31.8386 17.718L32.5831 8.47707C25.1809 7.88074 19.0057 14.0559 19.6021 21.4581L28.843 20.7136ZM24.6594 31.1007C27.6096 28.5904 29.1734 24.815 28.8623 20.9539L19.6214 21.6984C19.6932 22.5894 19.3324 23.4606 18.6516 24.0399L24.6594 31.1007ZM24.4758 35.4933C23.1706 34.3827 23.1706 32.3674 24.4758 31.2568L18.468 24.1961C12.8122 29.0085 12.8121 37.7416 18.4679 42.5539L24.4758 35.4933ZM28.8623 45.7961C29.1734 41.9346 27.6096 38.1599 24.6594 35.6495L18.6516 42.7104C19.3324 43.2896 19.6932 44.1607 19.6214 45.0518L28.8623 45.7961ZM31.8386 49.0323C30.1304 49.1699 28.7054 47.7448 28.843 46.0364L19.6021 45.2921C19.0057 52.6943 25.1809 58.8694 32.5831 58.2731L31.8386 49.0323ZM46.6182 53.3993C45.5076 54.7046 43.4925 54.7046 42.3818 53.3993L35.3211 59.4071C40.1334 65.0631 48.8666 65.0631 53.6789 59.4071L46.6182 53.3993ZM60.1573 46.0367C60.2949 47.7452 58.8702 49.1699 57.1618 49.0323L56.4171 58.2731C63.8193 58.8694 69.9944 52.6943 69.3981 45.2921L60.1573 46.0367ZM64.3407 35.6495C61.3904 38.1599 59.8269 41.935 60.1377 45.7964L69.3789 45.0518C69.3069 44.1607 69.6677 43.2896 70.3486 42.7104L64.3407 35.6495ZM64.5243 31.2568C65.8296 32.3674 65.8296 34.3827 64.5243 35.4933L70.5321 42.5539C76.1881 37.7416 76.1881 29.0086 70.5321 24.1961L64.5243 31.2568ZM60.1377 20.9539C59.8269 24.815 61.3904 28.5903 64.3407 31.1006L70.3486 24.0399C69.6677 23.4606 69.3069 22.5894 69.3789 21.6984L60.1377 20.9539ZM57.1618 17.718C58.8698 17.5804 60.2949 19.0054 60.1573 20.7136L69.3981 21.4581C69.9944 14.0559 63.8193 7.88074 56.4171 8.47707L57.1618 17.718ZM46.7747 13.5344C49.2853 16.4846 53.06 18.0484 56.9215 17.7373L56.1768 8.49643C55.2857 8.56822 54.4146 8.20733 53.8354 7.52652L46.7747 13.5344ZM53.6789 7.34292C48.8666 1.68713 40.1335 1.68712 35.3212 7.34292L42.3818 13.3508C43.4925 12.0456 45.5076 12.0456 46.6182 13.3508L53.6789 7.34292ZM42.2257 53.2157C40.0419 50.6495 36.9017 49.1325 33.5799 48.9856L33.1702 58.2475C33.9365 58.2813 34.6613 58.6317 35.1649 59.2236L42.2257 53.2157ZM33.5799 48.9856C33.0824 48.9637 32.5812 48.9723 32.0789 49.0127L32.8234 58.2538C32.9399 58.2442 33.0557 58.2424 33.1702 58.2475L33.5799 48.9856ZM38.0104 81.5833V53.6166H28.7397V81.5833H38.0104ZM56.9215 49.0127C56.419 48.9723 55.9176 48.9637 55.4203 48.9856L55.8301 58.2475C55.9443 58.2424 56.0604 58.2442 56.1768 58.2538L56.9215 49.0127ZM55.4203 48.9856C52.0984 49.1325 48.9582 50.6495 46.7743 53.2157L53.8354 59.2236C54.339 58.6317 55.0636 58.2813 55.8301 58.2475L55.4203 48.9856ZM50.9896 53.6166V81.5833H60.2604V53.6166H50.9896Z" fill="#232ED0"/>
<path d="M51.9166 29.6665L40.7916 40.7915L37.0833 37.0832" stroke="#232ED0" stroke-width="3" stroke-linecap="round" stroke-linejoin="round"/>
</g>
</g>
<defs>
<clipPath id="clip0_1185_3232">
<rect width="89" height="89" fill="white"/>
</clipPath>
</defs>
</svg>
