<svg width="78" height="108" viewBox="0 0 78 108" fill="none" xmlns="http://www.w3.org/2000/svg">
<path d="M68 0.53125H10C4.49725 0.5385 0.0385 4.99725 0.03125 10.5V97.5C0.0385 103.003 4.49725 107.461 10 107.469H68C73.5027 107.461 77.9615 103.003 77.9688 97.5V10.5C77.9615 4.99725 73.5027 0.5385 68 0.53125ZM72.5312 97.5C72.5276 100.001 70.5013 102.028 68 102.031H10C7.49875 102.028 5.47238 100.001 5.46875 97.5V10.5C5.47238 7.99875 7.49875 5.97238 10 5.96875H68C70.5013 5.97238 72.5276 7.99875 72.5312 10.5V97.5ZM39 34.222C33.7256 34.222 29.4481 38.4995 29.4481 43.7739C29.4481 49.0483 33.7256 53.3258 39 53.3258C44.2744 53.3258 48.5519 49.0483 48.5519 43.7739C48.5446 38.4995 44.2744 34.2293 39 34.222ZM39 47.8846C36.7271 47.8846 34.8856 46.0431 34.8856 43.7703C34.8856 41.4974 36.7271 39.6559 39 39.6559C41.2729 39.6559 43.1144 41.4974 43.1144 43.7703C43.1108 46.0431 41.2729 47.881 39 47.8846ZM25.0691 73.7164C25.2467 73.7599 25.4534 73.7816 25.66 73.7816C26.9541 73.7816 28.0344 72.8717 28.299 71.661L28.3026 71.6429C29.4227 66.6911 33.7836 63.048 39 63.048C44.2164 63.048 48.5773 66.6911 49.6829 71.5704L49.6974 71.6429C49.9729 72.8754 51.0568 73.7816 52.3509 73.7816C53.8516 73.7816 55.0696 72.5636 55.0696 71.0629C55.0696 70.8563 55.0479 70.6569 55.0044 70.4648L55.008 70.4829C53.3405 63.0661 46.8082 57.6069 39 57.6069C31.1918 57.6069 24.6631 63.0661 23.0138 70.3741L22.992 70.4829C22.9521 70.6569 22.9304 70.8599 22.9304 71.0629C22.9304 72.357 23.8366 73.4409 25.051 73.7127L25.0691 73.7164ZM60.75 87.6291H17.25C15.7492 87.6291 14.5312 88.8471 14.5312 90.3479C14.5312 91.8486 15.7492 93.0666 17.25 93.0666H60.75C62.2508 93.0666 63.4688 91.8486 63.4688 90.3479C63.4688 88.8471 62.2508 87.6291 60.75 87.6291ZM31.75 20.4688H46.25C47.7508 20.4688 48.9688 19.2508 48.9688 17.75C48.9688 16.2492 47.7508 15.0312 46.25 15.0312H31.75C30.2492 15.0312 29.0312 16.2492 29.0312 17.75C29.0312 19.2508 30.2492 20.4688 31.75 20.4688Z" fill="#232ED0"/>
</svg>
