<svg width="14" height="14" viewBox="0 0 14 14" fill="none" xmlns="http://www.w3.org/2000/svg">
<g id="icon-wrapper">
<path id="Union" d="M7.30975 1.00191C7.26911 0.961172 7.22083 0.928847 7.16768 0.906791C7.11453 0.884736 7.05755 0.873383 7 0.873383C6.94245 0.873383 6.88547 0.884736 6.83232 0.906791C6.77917 0.928847 6.73089 0.961172 6.69025 1.00191L1.44025 6.25191C1.39965 6.29262 1.36747 6.34093 1.34555 6.39407C1.32363 6.44722 1.3124 6.50417 1.3125 6.56166V12.6867C1.3125 12.8027 1.35859 12.914 1.44064 12.996C1.52269 13.0781 1.63397 13.1242 1.75 13.1242H5.6875C5.80353 13.1242 5.91481 13.0781 5.99686 12.996C6.07891 12.914 6.125 12.8027 6.125 12.6867V9.18666H7.875V12.6867C7.875 12.8027 7.92109 12.914 8.00314 12.996C8.08519 13.0781 8.19647 13.1242 8.3125 13.1242H12.25C12.366 13.1242 12.4773 13.0781 12.5594 12.996C12.6414 12.914 12.6875 12.8027 12.6875 12.6867V6.56166C12.6876 6.50417 12.6764 6.44722 12.6545 6.39407C12.6325 6.34093 12.6004 6.29262 12.5598 6.25191L11.375 5.06804V2.18666C11.375 2.07063 11.3289 1.95935 11.2469 1.87731C11.1648 1.79526 11.0535 1.74916 10.9375 1.74916H10.0625C9.94647 1.74916 9.83519 1.79526 9.75314 1.87731C9.67109 1.95935 9.625 2.07063 9.625 2.18666V3.31804L7.30975 1.00191ZM2.1875 12.2492V6.74279L7 1.93029L11.8125 6.74279V12.2492H8.75V8.74916C8.75 8.63313 8.70391 8.52185 8.62186 8.43981C8.53981 8.35776 8.42853 8.31166 8.3125 8.31166H5.6875C5.57147 8.31166 5.46019 8.35776 5.37814 8.43981C5.29609 8.52185 5.25 8.63313 5.25 8.74916V12.2492H2.1875Z" fill="#0D6EFD"/>
</g>
</svg>
