<svg width="64" height="64" viewBox="0 0 64 64" fill="none" xmlns="http://www.w3.org/2000/svg">
<circle cx="32" cy="32" r="32" fill="#E9EAFA"/>
<path d="M32 32C33.5913 32 35.1174 31.3679 36.2426 30.2426C37.3679 29.1174 38 27.5913 38 26C38 24.4087 37.3679 22.8826 36.2426 21.7574C35.1174 20.6321 33.5913 20 32 20C30.4087 20 28.8826 20.6321 27.7574 21.7574C26.6321 22.8826 26 24.4087 26 26C26 27.5913 26.6321 29.1174 27.7574 30.2426C28.8826 31.3679 30.4087 32 32 32V32ZM36 26C36 27.0609 35.5786 28.0783 34.8284 28.8284C34.0783 29.5786 33.0609 30 32 30C30.9391 30 29.9217 29.5786 29.1716 28.8284C28.4214 28.0783 28 27.0609 28 26C28 24.9391 28.4214 23.9217 29.1716 23.1716C29.9217 22.4214 30.9391 22 32 22C33.0609 22 34.0783 22.4214 34.8284 23.1716C35.5786 23.9217 36 24.9391 36 26V26ZM44 42C44 44 42 44 42 44H22C22 44 20 44 20 42C20 40 22 34 32 34C42 34 44 40 44 42ZM42 41.992C41.998 41.5 41.692 40.02 40.336 38.664C39.032 37.36 36.578 36 32 36C27.42 36 24.968 37.36 23.664 38.664C22.308 40.02 22.004 41.5 22 41.992H42Z" fill="#232ED0"/>
</svg>
